<mxfile host="app.diagrams.net" modified="2024-01-17T12:14:30.166Z" agent="Mozilla/5.0 (Windows NT 10.0; Win64; x64) AppleWebKit/537.36 (KHTML, like Gecko) Chrome/120.0.0.0 Safari/537.36" etag="hee_viwynFpR1WxLL3gb" version="22.1.17" type="device">
  <diagram name="Pagina-1" id="tIQxjyx2JIns3v0_x8EJ">
    <mxGraphModel dx="2314" dy="833" grid="1" gridSize="10" guides="1" tooltips="1" connect="1" arrows="1" fold="1" page="1" pageScale="1" pageWidth="827" pageHeight="1169" math="0" shadow="0">
      <root>
        <mxCell id="0" />
        <mxCell id="1" parent="0" />
        <mxCell id="nVe5dEYaRCdWecsGt--M-3" style="edgeStyle=orthogonalEdgeStyle;rounded=0;orthogonalLoop=1;jettySize=auto;html=1;exitX=0.5;exitY=1;exitDx=0;exitDy=0;entryX=0.5;entryY=0;entryDx=0;entryDy=0;" edge="1" parent="1" source="nVe5dEYaRCdWecsGt--M-1" target="nVe5dEYaRCdWecsGt--M-2">
          <mxGeometry relative="1" as="geometry" />
        </mxCell>
        <mxCell id="nVe5dEYaRCdWecsGt--M-1" value="START GAME" style="rounded=1;whiteSpace=wrap;html=1;" vertex="1" parent="1">
          <mxGeometry x="320" y="20" width="120" height="60" as="geometry" />
        </mxCell>
        <mxCell id="nVe5dEYaRCdWecsGt--M-7" style="edgeStyle=orthogonalEdgeStyle;rounded=0;orthogonalLoop=1;jettySize=auto;html=1;exitX=0.5;exitY=1;exitDx=0;exitDy=0;entryX=0.5;entryY=0;entryDx=0;entryDy=0;" edge="1" parent="1" source="nVe5dEYaRCdWecsGt--M-2" target="nVe5dEYaRCdWecsGt--M-6">
          <mxGeometry relative="1" as="geometry" />
        </mxCell>
        <mxCell id="nVe5dEYaRCdWecsGt--M-2" value="print ASCII : &quot;Higher Lower&quot;" style="rounded=0;whiteSpace=wrap;html=1;" vertex="1" parent="1">
          <mxGeometry x="320" y="140" width="120" height="60" as="geometry" />
        </mxCell>
        <mxCell id="nVe5dEYaRCdWecsGt--M-10" style="edgeStyle=orthogonalEdgeStyle;rounded=0;orthogonalLoop=1;jettySize=auto;html=1;exitX=0.5;exitY=1;exitDx=0;exitDy=0;entryX=0.5;entryY=0;entryDx=0;entryDy=0;" edge="1" parent="1" source="nVe5dEYaRCdWecsGt--M-4" target="nVe5dEYaRCdWecsGt--M-9">
          <mxGeometry relative="1" as="geometry" />
        </mxCell>
        <mxCell id="nVe5dEYaRCdWecsGt--M-4" value="print ASCII : &quot;VS&quot;" style="rounded=0;whiteSpace=wrap;html=1;" vertex="1" parent="1">
          <mxGeometry x="320" y="380" width="120" height="60" as="geometry" />
        </mxCell>
        <mxCell id="nVe5dEYaRCdWecsGt--M-8" style="edgeStyle=orthogonalEdgeStyle;rounded=0;orthogonalLoop=1;jettySize=auto;html=1;exitX=0.5;exitY=1;exitDx=0;exitDy=0;entryX=0.5;entryY=0;entryDx=0;entryDy=0;" edge="1" parent="1" source="nVe5dEYaRCdWecsGt--M-6" target="nVe5dEYaRCdWecsGt--M-4">
          <mxGeometry relative="1" as="geometry" />
        </mxCell>
        <mxCell id="nVe5dEYaRCdWecsGt--M-6" value="print Compare A : name, job,&amp;nbsp;residence" style="rounded=0;whiteSpace=wrap;html=1;" vertex="1" parent="1">
          <mxGeometry x="320" y="260" width="120" height="60" as="geometry" />
        </mxCell>
        <mxCell id="nVe5dEYaRCdWecsGt--M-12" style="edgeStyle=orthogonalEdgeStyle;rounded=0;orthogonalLoop=1;jettySize=auto;html=1;exitX=0.5;exitY=1;exitDx=0;exitDy=0;entryX=0.5;entryY=0;entryDx=0;entryDy=0;" edge="1" parent="1" source="nVe5dEYaRCdWecsGt--M-9" target="nVe5dEYaRCdWecsGt--M-11">
          <mxGeometry relative="1" as="geometry" />
        </mxCell>
        <mxCell id="nVe5dEYaRCdWecsGt--M-9" value="print Compare B : name, job,&amp;nbsp;residence" style="rounded=0;whiteSpace=wrap;html=1;" vertex="1" parent="1">
          <mxGeometry x="320" y="500" width="120" height="60" as="geometry" />
        </mxCell>
        <mxCell id="nVe5dEYaRCdWecsGt--M-16" style="edgeStyle=orthogonalEdgeStyle;rounded=0;orthogonalLoop=1;jettySize=auto;html=1;exitX=0;exitY=0.25;exitDx=0;exitDy=0;entryX=0.5;entryY=0;entryDx=0;entryDy=0;" edge="1" parent="1" source="nVe5dEYaRCdWecsGt--M-11" target="nVe5dEYaRCdWecsGt--M-21">
          <mxGeometry relative="1" as="geometry">
            <mxPoint x="100" y="680" as="targetPoint" />
          </mxGeometry>
        </mxCell>
        <mxCell id="nVe5dEYaRCdWecsGt--M-30" style="edgeStyle=orthogonalEdgeStyle;rounded=0;orthogonalLoop=1;jettySize=auto;html=1;exitX=1;exitY=0.25;exitDx=0;exitDy=0;entryX=0.5;entryY=0;entryDx=0;entryDy=0;" edge="1" parent="1" source="nVe5dEYaRCdWecsGt--M-11" target="nVe5dEYaRCdWecsGt--M-29">
          <mxGeometry relative="1" as="geometry" />
        </mxCell>
        <mxCell id="nVe5dEYaRCdWecsGt--M-11" value="Who has more followers ? Type &#39;a&#39; or &#39;b&#39;" style="shape=parallelogram;perimeter=parallelogramPerimeter;whiteSpace=wrap;html=1;fixedSize=1;" vertex="1" parent="1">
          <mxGeometry x="320" y="620" width="120" height="60" as="geometry" />
        </mxCell>
        <mxCell id="nVe5dEYaRCdWecsGt--M-17" value="CORRECT" style="text;html=1;strokeColor=none;fillColor=none;align=center;verticalAlign=middle;whiteSpace=wrap;rounded=0;" vertex="1" parent="1">
          <mxGeometry x="100" y="610" width="60" height="30" as="geometry" />
        </mxCell>
        <mxCell id="nVe5dEYaRCdWecsGt--M-19" value="WRONG" style="text;html=1;strokeColor=none;fillColor=none;align=center;verticalAlign=middle;whiteSpace=wrap;rounded=0;" vertex="1" parent="1">
          <mxGeometry x="655" y="610" width="60" height="30" as="geometry" />
        </mxCell>
        <mxCell id="nVe5dEYaRCdWecsGt--M-24" style="edgeStyle=orthogonalEdgeStyle;rounded=0;orthogonalLoop=1;jettySize=auto;html=1;exitX=0.5;exitY=1;exitDx=0;exitDy=0;entryX=0.5;entryY=0;entryDx=0;entryDy=0;" edge="1" parent="1" source="nVe5dEYaRCdWecsGt--M-21" target="nVe5dEYaRCdWecsGt--M-23">
          <mxGeometry relative="1" as="geometry" />
        </mxCell>
        <mxCell id="nVe5dEYaRCdWecsGt--M-21" value="print ASCII : &quot;Higher Lower&quot;" style="rounded=0;whiteSpace=wrap;html=1;" vertex="1" parent="1">
          <mxGeometry x="40" y="680" width="120" height="60" as="geometry" />
        </mxCell>
        <mxCell id="nVe5dEYaRCdWecsGt--M-26" style="edgeStyle=orthogonalEdgeStyle;rounded=0;orthogonalLoop=1;jettySize=auto;html=1;exitX=0.5;exitY=1;exitDx=0;exitDy=0;entryX=0.5;entryY=0;entryDx=0;entryDy=0;" edge="1" parent="1" source="nVe5dEYaRCdWecsGt--M-23" target="nVe5dEYaRCdWecsGt--M-25">
          <mxGeometry relative="1" as="geometry" />
        </mxCell>
        <mxCell id="nVe5dEYaRCdWecsGt--M-23" value="print: &quot;You are right! Current score: {x}" style="rounded=0;whiteSpace=wrap;html=1;" vertex="1" parent="1">
          <mxGeometry x="40" y="800" width="120" height="60" as="geometry" />
        </mxCell>
        <mxCell id="nVe5dEYaRCdWecsGt--M-28" style="edgeStyle=orthogonalEdgeStyle;rounded=0;orthogonalLoop=1;jettySize=auto;html=1;exitX=0;exitY=0.5;exitDx=0;exitDy=0;entryX=0;entryY=0.5;entryDx=0;entryDy=0;" edge="1" parent="1" source="nVe5dEYaRCdWecsGt--M-25" target="nVe5dEYaRCdWecsGt--M-6">
          <mxGeometry relative="1" as="geometry" />
        </mxCell>
        <mxCell id="nVe5dEYaRCdWecsGt--M-25" value="&quot;Remove A; insert B&quot;&lt;br&gt;&lt;br&gt;" style="rounded=0;whiteSpace=wrap;html=1;" vertex="1" parent="1">
          <mxGeometry x="40" y="920" width="120" height="60" as="geometry" />
        </mxCell>
        <mxCell id="nVe5dEYaRCdWecsGt--M-32" style="edgeStyle=orthogonalEdgeStyle;rounded=0;orthogonalLoop=1;jettySize=auto;html=1;exitX=0.5;exitY=1;exitDx=0;exitDy=0;entryX=0.5;entryY=0;entryDx=0;entryDy=0;" edge="1" parent="1" source="nVe5dEYaRCdWecsGt--M-29" target="nVe5dEYaRCdWecsGt--M-31">
          <mxGeometry relative="1" as="geometry" />
        </mxCell>
        <mxCell id="nVe5dEYaRCdWecsGt--M-29" value="print ASCII : &quot;Higher Lower&quot;" style="rounded=0;whiteSpace=wrap;html=1;" vertex="1" parent="1">
          <mxGeometry x="655" y="680" width="120" height="60" as="geometry" />
        </mxCell>
        <mxCell id="nVe5dEYaRCdWecsGt--M-34" style="edgeStyle=orthogonalEdgeStyle;rounded=0;orthogonalLoop=1;jettySize=auto;html=1;exitX=0.5;exitY=1;exitDx=0;exitDy=0;entryX=0.5;entryY=0;entryDx=0;entryDy=0;" edge="1" parent="1" source="nVe5dEYaRCdWecsGt--M-31" target="nVe5dEYaRCdWecsGt--M-33">
          <mxGeometry relative="1" as="geometry" />
        </mxCell>
        <mxCell id="nVe5dEYaRCdWecsGt--M-31" value="print: Sorry, thats wrong. f&lt;br&gt;final score: {x}" style="rounded=0;whiteSpace=wrap;html=1;" vertex="1" parent="1">
          <mxGeometry x="655" y="790" width="120" height="60" as="geometry" />
        </mxCell>
        <mxCell id="nVe5dEYaRCdWecsGt--M-33" value="END GAME" style="rounded=1;whiteSpace=wrap;html=1;" vertex="1" parent="1">
          <mxGeometry x="655" y="920" width="120" height="60" as="geometry" />
        </mxCell>
      </root>
    </mxGraphModel>
  </diagram>
</mxfile>
